<?xml version="1.0" encoding="UTF-8"?>
<svg version="1.1" xmlns="http://www.w3.org/2000/svg" width="1458" height="448">
<path d="M0 0 C481.14 0 962.28 0 1458 0 C1458 147.84 1458 295.68 1458 448 C976.86 448 495.72 448 0 448 C0 300.16 0 152.32 0 0 Z " fill="#202020" transform="translate(0,0)"/>
<path d="M0 0 C0.85207031 0.76828125 1.70414063 1.5365625 2.58203125 2.328125 C3.42378906 3.07578125 4.26554688 3.8234375 5.1328125 4.59375 C21.80959952 20.25903672 32.98584091 43.17141779 33.890625 66.12890625 C34.38362819 93.48948746 27.28976986 117.88876099 8.58203125 138.328125 C7.75058594 139.25238281 6.91914063 140.17664063 6.0625 141.12890625 C-11.58621558 159.81122157 -35.47094151 169.08917991 -60.80859375 170.51953125 C-86.83838994 171.00037724 -110.98832908 161.3097267 -130.0078125 143.671875 C-146.91165562 127.23377796 -159.13099992 105.34761777 -159.5859375 81.37890625 C-159.59782148 79.1328345 -159.60418453 76.88672782 -159.60546875 74.640625 C-159.61771484 73.53267578 -159.62996094 72.42472656 -159.64257812 71.28320312 C-159.6913345 43.47581785 -147.75442047 20.74536969 -128.41796875 1.328125 C-93.28702705 -31.65785822 -35.96252913 -30.96042039 0 0 Z " fill="#A1DDEC" transform="translate(258.41796875,53.671875)"/>
<path d="M0 0 C1.14138428 0.00169189 2.28276855 0.00338379 3.45874023 0.00512695 C13.19178274 0.21098249 20.75762805 2.18542218 29.375 6.5625 C30.21417969 6.93375 31.05335938 7.305 31.91796875 7.6875 C42.57265019 12.81683337 51.38318777 22.57052018 57.375 32.5625 C57.76042969 33.18125 58.14585937 33.8 58.54296875 34.4375 C66.34107148 48.30079374 67.74139465 65.72659686 63.75 80.9375 C57.44982169 99.96974596 46.15615437 113.80262977 28.3125 122.9375 C27.664021 123.27160889 27.01554199 123.60571777 26.34741211 123.94995117 C12.31017864 130.79501858 -5.86507152 130.80076072 -20.49609375 125.80859375 C-22.04490234 125.19177734 -22.04490234 125.19177734 -23.625 124.5625 C-24.64722656 124.16160156 -25.66945313 123.76070313 -26.72265625 123.34765625 C-43.47281483 115.89113404 -54.45403101 101.35134663 -60.91821289 84.62280273 C-66.14273903 69.39317369 -65.21831502 52.17971781 -58.625 37.5625 C-50.54788556 21.05384808 -37.40054711 9.34485658 -20.35107422 2.67260742 C-13.58796634 0.38674493 -7.10401206 -0.01518511 0 0 Z " fill="#A1DCEB" transform="translate(355.625,191.4375)"/>
<path d="M0 0 C4.95 0 9.9 0 15 0 C15 43.23 15 86.46 15 131 C10.05 131 5.1 131 0 131 C-0.33 127.04 -0.66 123.08 -1 119 C-1.928125 120.19625 -2.85625 121.3925 -3.8125 122.625 C-9.6036777 129.04441197 -15.1799246 132.82239847 -23.95703125 133.54296875 C-37.49838479 134.12826999 -48.29594941 131.90101429 -58.90234375 123.0078125 C-65.66502807 116.5347776 -70.10456545 109.88697734 -73 101 C-73.35449219 100.06800781 -73.70898438 99.13601563 -74.07421875 98.17578125 C-77.65755912 85.88356303 -74.50728901 74.41534306 -68.6484375 63.4765625 C-62.65134268 53.66008886 -53.70339823 47.03822727 -43 43 C-34.1462226 41.31405874 -22.09515247 39.70312488 -13.875 44.125 C-11.86328125 45.5 -11.86328125 45.5 -10 47 C-9.33355469 47.515625 -8.66710938 48.03125 -7.98046875 48.5625 C-5.10502274 50.90502221 -3.07584417 52.88623374 -1 56 C-0.67 37.52 -0.34 19.04 0 0 Z " fill="#9FDAE8" transform="translate(1326,160)"/>
<path d="M0 0 C10.98891151 6.5152836 17.55450761 15.11726204 22 27 C22.53947266 28.40572266 22.53947266 28.40572266 23.08984375 29.83984375 C26.73565269 42.49846792 23.17551791 55.36076646 17.10546875 66.55859375 C11.60363611 75.98918881 3.21835377 82.34191034 -7 86 C-19.41982629 88.32871743 -31.57462094 88.50997471 -42.359375 81.45703125 C-52.41127641 74.08676126 -60.39730656 64.26849536 -62.71875 51.74609375 C-63.71392608 42.02930505 -64.25996883 32.00149936 -60 23 C-59.74476563 22.35289062 -59.48953125 21.70578125 -59.2265625 21.0390625 C-54.37726657 9.78335726 -44.35007919 1.52453768 -33.2421875 -3.1640625 C-22.69828688 -5.88261037 -9.55934187 -5.32076576 0 0 Z " fill="#9FD9E8" transform="translate(684,206)"/>
<path d="M0 0 C3.76969568 2.08138753 7.0527067 4.42128968 10.28515625 7.26171875 C10.89101562 7.76316406 11.496875 8.26460937 12.12109375 8.78125 C19.11449468 15.05698751 22.36829298 23.51112895 25.28515625 32.26171875 C25.28515625 37.54171875 25.28515625 42.82171875 25.28515625 48.26171875 C1.85515625 48.26171875 -21.57484375 48.26171875 -45.71484375 48.26171875 C-40.90279479 59.81063624 -37.69663283 66.98201246 -26.71484375 72.26171875 C-19.16323545 74.77892152 -11.77425352 73.54799571 -4.71484375 70.26171875 C-3.41546875 69.67390625 -3.41546875 69.67390625 -2.08984375 69.07421875 C1.48915411 66.34287828 3.69544413 62.93549642 6.28515625 59.26171875 C10.90515625 59.92171875 15.52515625 60.58171875 20.28515625 61.26171875 C21.28515625 64.26171875 21.28515625 64.26171875 20.3515625 66.2421875 C13.0384464 76.97442281 4.46044576 85.44262604 -8.71484375 88.26171875 C-21.09810461 89.45125864 -32.20447296 88.89717529 -42.453125 81.20703125 C-52.28265926 72.79003747 -59.04302361 63.32379016 -60.71484375 50.26171875 C-61.82972455 35.55781503 -60.38422408 23.9621063 -50.58984375 12.2890625 C-37.57227267 -1.78618623 -18.30193859 -8.06190494 0 0 Z " fill="#9FDAE9" transform="translate(1214.71484375,204.73828125)"/>
<path d="M0 0 C11.264079 7.81681724 16.656803 17.25947151 20.91015625 30.01953125 C20.91015625 35.29953125 20.91015625 40.57953125 20.91015625 46.01953125 C-2.18984375 46.01953125 -25.28984375 46.01953125 -49.08984375 46.01953125 C-46.11319718 55.9416865 -43.62477152 62.31274523 -35.08984375 68.01953125 C-28.47717383 71.24728786 -21.63592512 72.30069963 -14.51171875 70.29296875 C-6.94209659 67.50535341 -2.14999778 64.11000433 1.91015625 57.01953125 C3.84814146 57.32900796 5.78553051 57.64221959 7.72265625 57.95703125 C8.80160156 58.13105469 9.88054687 58.30507813 10.9921875 58.484375 C13.91015625 59.01953125 13.91015625 59.01953125 16.91015625 60.01953125 C14.79224901 69.19712928 8.22794032 75.26749303 0.73046875 80.4140625 C-6.82358471 84.71422313 -12.76841095 86.70418117 -21.52734375 86.51953125 C-22.45458252 86.50599609 -23.38182129 86.49246094 -24.3371582 86.47851562 C-36.00037619 86.12467957 -43.71744767 82.17304116 -52.08984375 74.01953125 C-57.95075755 67.35021554 -61.6465153 60.53667054 -64.08984375 52.01953125 C-64.28191406 51.40078125 -64.47398437 50.78203125 -64.671875 50.14453125 C-67.1444387 37.57374008 -64.63030261 25.03419228 -57.75 14.3671875 C-44.20640397 -4.78505064 -21.01008553 -11.9499743 0 0 Z " fill="#9FDAE9" transform="translate(972.08984375,206.98046875)"/>
<path d="M0 0 C5.57495543 3.95712523 10.26888105 8.74395161 14.9921875 13.6640625 C13.73505032 17.43547404 12.64536533 17.71581549 9.1796875 19.4765625 C8.30699219 19.93675781 7.43429687 20.39695313 6.53515625 20.87109375 C3.9921875 21.6640625 3.9921875 21.6640625 1.8671875 20.9765625 C0.04168303 19.69870937 -1.56904397 18.3734286 -3.1953125 16.8515625 C-12.75197377 8.53260046 -24.04055266 4.9196752 -36.66796875 5.25 C-45.25630808 6.31475318 -52.84823885 9.86075557 -59.421875 15.4296875 C-61.0078125 16.6640625 -61.0078125 16.6640625 -64.0078125 17.6640625 C-65.06845385 19.50852547 -65.06845385 19.50852547 -66.0078125 21.6640625 C-66.95281471 23.02756569 -67.91214604 24.38120873 -68.8828125 25.7265625 C-76.07310261 36.36256621 -77.94943046 48.04376627 -77.0078125 60.6640625 C-74.22804058 74.1550208 -67.6976476 86.31681849 -56.4140625 94.55859375 C-45.04198302 101.59763692 -32.62048053 102.48828473 -19.5703125 100.01171875 C-10.90852563 97.14496258 -4.16831062 91.22201211 1.9921875 84.6640625 C6.76828248 86.30584515 10.78601654 88.92952952 14.9921875 91.6640625 C9.06040307 103.52763136 -3.39349742 110.78153643 -15.5 114.9375 C-29.59633722 119.02148555 -45.90427754 117.94856723 -58.890625 111.15625 C-75.2046949 101.38598529 -86.53907001 87.0916515 -91.38818359 68.67211914 C-92.40692403 63.7265317 -92.49696678 58.88683798 -92.4453125 53.8515625 C-92.43701416 52.80129883 -92.42871582 51.75103516 -92.42016602 50.66894531 C-92.00015384 31.29158642 -83.78472051 17.44097051 -70.265625 3.921875 C-50.18329953 -14.62304756 -21.98838735 -14.63040559 0 0 Z " fill="#9ED8E7" transform="translate(591.0078125,177.3359375)"/>
<path d="M0 0 C7.71458465 6.17166772 12.80063043 13.2050968 14.2265625 23.1328125 C14.68805313 32.43549204 11.78077532 40.87046384 6 48.1875 C0.29326294 54.18689024 -6.6934201 57.89284681 -15.01171875 58.43359375 C-25.52955071 58.65793897 -32.97460486 57.10677702 -41.1875 50.25 C-47.75147499 43.46771099 -51.31814362 35.27900653 -51.8125 25.875 C-51.48490393 16.60403115 -47.48079213 9.29655899 -41.125 2.6875 C-28.6347857 -8.7382074 -14.20442799 -7.79850949 0 0 Z " fill="#A0DBEA" transform="translate(246.1875,293.75)"/>
<path d="M0 0 C5.76834684 3.75267653 10.68215685 7.89710604 14 14 C14.51103271 14.89275635 15.02206543 15.7855127 15.54858398 16.70532227 C18.07198917 22.68800513 17.3667646 29.31307477 17.29296875 35.68359375 C17.28736582 37.10848034 17.28309902 38.53337275 17.28010559 39.95826721 C17.26871153 43.68855047 17.23929225 47.41847716 17.20599365 51.14862061 C17.17517458 54.96296365 17.1615751 58.77736492 17.14648438 62.59179688 C17.11441636 70.06137844 17.06169403 77.53059361 17 85 C12.38 85 7.76 85 3 85 C2.99589111 83.35596191 2.99178223 81.71192383 2.98754883 80.01806641 C2.96568652 73.88624226 2.91132148 67.7550533 2.84741211 61.62353516 C2.82429423 58.97581088 2.80985109 56.32799546 2.80444336 53.68017578 C2.79510906 49.86173097 2.75401529 46.04470769 2.70703125 42.2265625 C2.7109639 41.05324371 2.71489655 39.87992493 2.71894836 38.67105103 C2.5751492 30.46900618 0.99431016 23.81955672 -4.33610535 17.3878479 C-9.07685285 12.94399508 -15.61210138 10.94424693 -22 10.5625 C-27.79386567 10.85046549 -32.80682157 12.96526412 -37.0546875 16.90625 C-41.66168585 22.0293851 -44.22717706 25.75024093 -44.31884766 32.77832031 C-44.33871735 33.9392218 -44.35858704 35.10012329 -44.37905884 36.29620361 C-44.39638565 38.1682547 -44.39638565 38.1682547 -44.4140625 40.078125 C-44.43342865 41.35983582 -44.4527948 42.64154663 -44.4727478 43.96209717 C-44.52400627 47.36174365 -44.56366529 50.76142965 -44.60089111 54.16125488 C-44.64097041 57.63364387 -44.69204478 61.10586933 -44.7421875 64.578125 C-44.83887223 71.38530374 -44.92228394 78.19257854 -45 85 C-49.95 85 -54.9 85 -60 85 C-60 56.29 -60 27.58 -60 -2 C-55.05 -2 -50.1 -2 -45 -2 C-44.67 0.97 -44.34 3.94 -44 7 C-43.52691406 6.54109375 -43.05382812 6.0821875 -42.56640625 5.609375 C-30.95004839 -5.16915588 -14.2315525 -8.56412009 0 0 Z " fill="#9ED9E8" transform="translate(783,206)"/>
<path d="M0 0 C6.44740527 6.03014104 10.37364533 14.93647884 10.74525452 23.71614075 C10.74303391 24.75316635 10.74081329 25.79019196 10.73852539 26.85864258 C10.73841209 28.62991264 10.73841209 28.62991264 10.73829651 30.43696594 C10.73313522 31.70171249 10.72797394 32.96645905 10.72265625 34.26953125 C10.7212413 35.57202316 10.71982635 36.87451508 10.71836853 38.21647644 C10.71456355 41.66716454 10.70475064 45.11781008 10.69366455 48.56848145 C10.68340689 52.09447657 10.6788616 55.62047861 10.67382812 59.14648438 C10.66312644 66.05600876 10.64554612 72.96549795 10.625 79.875 C5.675 79.875 0.725 79.875 -4.375 79.875 C-4.3843457 78.19019531 -4.39369141 76.50539063 -4.40332031 74.76953125 C-4.43896776 69.17742707 -4.49284124 63.58569304 -4.55890274 57.99386597 C-4.59826475 54.60640644 -4.63050766 51.21920245 -4.64599609 47.83154297 C-4.66747832 43.92893834 -4.71416004 40.02731051 -4.765625 36.125 C-4.76685364 34.91948486 -4.76808228 33.71396973 -4.76934814 32.47192383 C-4.9084631 24.4251395 -5.91653792 18.89353691 -11.3046875 12.6328125 C-17.25556152 7.63790218 -22.14547191 5.36915954 -30.00390625 5.5546875 C-36.08572804 6.37628451 -42.11805164 9.49642454 -46.375 13.875 C-49.56211969 19.20127121 -51.48024231 24.0165557 -51.58032227 30.2644043 C-51.60026749 31.36531906 -51.62021271 32.46623383 -51.64076233 33.60050964 C-51.65747482 34.78808365 -51.67418732 35.97565765 -51.69140625 37.19921875 C-51.71218735 38.41575638 -51.73296844 39.63229401 -51.75437927 40.88569641 C-51.81984717 44.77790596 -51.87874715 48.67018385 -51.9375 52.5625 C-51.98068782 55.19857482 -52.0243022 57.83464269 -52.06835938 60.47070312 C-52.17552582 66.93873176 -52.27680126 73.40682925 -52.375 79.875 C-56.995 79.875 -61.615 79.875 -66.375 79.875 C-66.375 51.165 -66.375 22.455 -66.375 -7.125 C-61.755 -7.125 -57.135 -7.125 -52.375 -7.125 C-52.045 -3.825 -51.715 -0.525 -51.375 2.875 C-50.88 2.153125 -50.385 1.43125 -49.875 0.6875 C-36.45154236 -14.41388984 -14.68919347 -11.32291997 0 0 Z " fill="#A0DBEA" transform="translate(884.375,211.125)"/>
<path d="M0 0 C7.06327281 4.18868504 12.07549959 10.22228674 14.83984375 17.96484375 C16.98681011 27.83580741 16.98566891 39.25383491 11.5 48 C7.04722528 54.33238842 2.22574974 59.28817207 -5.5 61 C-14.87104082 62.07097609 -22.7185665 61.61678018 -30.5 56 C-38.50258351 49.49596977 -42.60584238 41.72552186 -43.79296875 31.46875 C-44.24717629 22.92473789 -41.86841137 15.51113186 -36.73828125 8.640625 C-27.11332807 -1.74573421 -13.44824966 -6.02711189 0 0 Z " fill="#212122" transform="translate(1309.5,218)"/>
<path d="M0 0 C7.18363071 5.20071116 11.29371286 10.97295621 13.67578125 19.5234375 C14.50046772 28.24018169 14.43235882 36.00449967 9.67578125 43.5234375 C9.24007812 44.23113281 8.804375 44.93882812 8.35546875 45.66796875 C3.852951 52.29872576 -2.42232342 56.81910713 -10.32421875 58.5234375 C-18.49356104 59.48149032 -24.515022 58.175824 -31.32421875 53.5234375 C-37.07841022 48.95188642 -41.76273602 43.83621997 -43.32421875 36.5234375 C-44.46633598 26.33698652 -44.84340664 15.98521169 -38.32421875 7.5234375 C-28.62330098 -4.5791638 -13.40819607 -8.51814809 0 0 Z " fill="#212222" transform="translate(679.32421875,220.4765625)"/>
<path d="M0 0 C4.16602509 2.5172357 7.97067138 5.30438718 11.5859375 8.5625 C12.3284375 9.23152344 13.0709375 9.90054688 13.8359375 10.58984375 C15.5859375 12.5625 15.5859375 12.5625 15.5859375 15.5625 C14.0330099 16.43394869 12.46808314 17.28403657 10.8984375 18.125 C10.02832031 18.60066406 9.15820312 19.07632813 8.26171875 19.56640625 C5.10146044 20.74285278 3.75070434 20.64438515 0.5859375 19.5625 C-1.66015625 18.22265625 -1.66015625 18.22265625 -3.8515625 16.625 C-10.50292263 12.06312965 -16.37974518 10.58093182 -24.4140625 11.5625 C-32.85815993 14.06997677 -38.75055673 18.9587423 -43.3359375 26.40234375 C-47.18075194 34.10590313 -48.22691263 43.15966762 -45.86328125 51.5078125 C-42.3068922 61.1637068 -36.68574424 67.42665913 -27.5390625 72 C-19.0635133 73.52559886 -11.85590479 73.14434016 -4.4140625 68.5625 C-3.33007325 67.6499323 -2.26548608 66.71356125 -1.2265625 65.75 C1.5859375 63.5625 1.5859375 63.5625 4.4609375 63.4375 C8.57250338 64.91766372 11.99796884 67.09463323 15.5859375 69.5625 C12.56798174 76.67852201 5.43548622 81.58907206 -1.39453125 84.7734375 C-2.06097656 85.03382813 -2.72742187 85.29421875 -3.4140625 85.5625 C-4.28675781 85.91441406 -5.15945313 86.26632812 -6.05859375 86.62890625 C-17.93512087 89.93331834 -29.92137555 88.51893172 -40.56640625 82.58203125 C-43.53544479 80.47641681 -45.92164148 78.20913436 -48.4140625 75.5625 C-49.01089844 74.9746875 -49.60773437 74.386875 -50.22265625 73.78125 C-60.77493941 62.64694643 -62.26098299 51.87555104 -61.91796875 37.11328125 C-61.11532241 24.06145477 -55.00228262 14.34569611 -45.734375 5.38671875 C-32.94401647 -4.66900083 -14.75083894 -7.27212228 0 0 Z " fill="#9FDAE8" transform="translate(1066.4140625,205.4375)"/>
<path d="M0 0 C4.95 0 9.9 0 15 0 C15 8.91 15 17.82 15 27 C21.6 27 28.2 27 35 27 C35 31.95 35 36.9 35 42 C28.4 42 21.8 42 15 42 C15 65.76 15 89.52 15 114 C10.05 114 5.1 114 0 114 C0 90.24 0 66.48 0 42 C-4.95 42 -9.9 42 -15 42 C-15 37.05 -15 32.1 -15 27 C-10.05 27 -5.1 27 0 27 C0 18.09 0 9.18 0 0 Z " fill="#9DD7E6" transform="translate(1109,177)"/>
<path d="M0 0 C8.13068847 6.78828587 10.65998563 11.62805314 12.83203125 22.48828125 C-5.97796875 22.48828125 -24.78796875 22.48828125 -44.16796875 22.48828125 C-43.04308808 13.48923592 -41.28341893 8.20684083 -34.53515625 2.109375 C-24.38033054 -5.62434104 -11.02531333 -7.68792119 0 0 Z " fill="#232424" transform="translate(966.16796875,219.51171875)"/>
<path d="M0 0 C4.39437273 4.12827749 7.5082227 8.65293258 9.3125 14.4375 C9.3125 16.4175 9.3125 18.3975 9.3125 20.4375 C-9.1675 20.4375 -27.6475 20.4375 -46.6875 20.4375 C-45.47494783 10.73708261 -42.86848202 4.72543659 -35.3125 -1.5625 C-24.24823486 -9.41277159 -10.34230462 -8.44792209 0 0 Z " fill="#222424" transform="translate(1215.6875,221.5625)"/>
</svg>
